<svg xmlns="http://www.w3.org/2000/svg" version="1.1" xmlns:xlink="http://www.w3.org/1999/xlink" xmlns:svgjs="http://svgjs.dev/svgjs" width="1000" height="623" viewBox="0 0 1000 623"><g transform="matrix(1,0,0,1,-0.6060606060606233,0.2522267206477409)"><svg viewBox="0 0 396 247" data-background-color="#000000" preserveAspectRatio="xMidYMid meet" height="623" width="1000" xmlns="http://www.w3.org/2000/svg" xmlns:xlink="http://www.w3.org/1999/xlink"><g id="tight-bounds" transform="matrix(1,0,0,1,0.2400000000000091,-0.09999999999999432)"><svg viewBox="0 0 395.52 247.2" height="247.2" width="395.52"><g><svg></svg></g><g><svg viewBox="0 0 395.52 247.2" height="247.2" width="395.52"><g transform="matrix(1,0,0,1,112.19358471059019,47.215199999999996)"><svg viewBox="0 0 171.1328305788196 152.7696" height="152.7696" width="171.1328305788196"><g><svg viewBox="0 0 171.1328305788196 152.7696" height="152.7696" width="171.1328305788196"><g><svg viewBox="0 0 244.43135999999996 218.20290687856834" height="152.7696" width="171.1328305788196"><g><svg viewBox="0 0 244.43135999999996 218.20290687856834" height="218.20290687856834" width="244.43135999999996"><g id="textblocktransform"><svg viewBox="0 0 244.43135999999996 218.20290687856834" height="218.20290687856834" width="244.43135999999996" id="textblock"><g><svg viewBox="0 0 244.43135999999996 151.18609182667797" height="151.18609182667797" width="244.43135999999996"><g transform="matrix(1,0,0,1,0,0)"><svg width="244.43135999999996" viewBox="4 -35.7 58.85 36.400000000000006" height="151.18609182667797" data-palette-color="#ffffff"><path d="M8.75 0L4 0 4-35 9.15-35 26.4-8.8 26.4-35 31.2-35 31.2 0 27.15 0 8.75-27.65 8.75 0ZM49.2 0.7L49.2 0.7Q47.02 0.7 44.85 0.38 42.67 0.05 40.82-0.46 38.97-0.98 37.75-1.55L37.75-1.55 38.4-6.6Q39.75-5.95 41.66-5.25 43.57-4.55 45.8-4.08 48.02-3.6 50.3-3.6L50.3-3.6Q53.67-3.6 55.66-4.84 57.65-6.08 57.65-8.7L57.65-8.7Q57.65-10.68 56.65-11.94 55.65-13.2 53.64-14.1 51.62-15 48.6-15.9L48.6-15.9Q45.72-16.75 43.3-17.91 40.87-19.07 39.41-21.04 37.95-23 37.95-26.25L37.95-26.25Q37.95-29.03 39.39-31.16 40.82-33.3 43.61-34.5 46.4-35.7 50.45-35.7L50.45-35.7Q53.9-35.7 56.79-34.95 59.67-34.2 61.55-33.3L61.55-33.3 61.05-28.25Q58.2-29.95 55.61-30.68 53.02-31.4 50.25-31.4L50.25-31.4Q47.17-31.4 45.16-30.25 43.15-29.1 43.15-26.5L43.15-26.5Q43.15-24.75 44.05-23.64 44.95-22.53 46.72-21.74 48.5-20.95 51.15-20.15L51.15-20.15Q54.8-19.05 57.42-17.64 60.05-16.23 61.45-14.16 62.85-12.1 62.85-9.05L62.85-9.05Q62.85-6.8 62-5 61.15-3.2 59.45-1.93 57.75-0.65 55.19 0.03 52.62 0.7 49.2 0.7Z" opacity="1" transform="matrix(1,0,0,1,0,0)" fill="#ffffff" class="wordmark-text-0" data-fill-palette-color="primary" id="text-0"></path></svg></g></svg></g><g transform="matrix(1,0,0,1,0,186.8774996407528)"><svg viewBox="0 0 244.43135999999996 31.325407237815547" height="31.325407237815547" width="244.43135999999996"><g transform="matrix(1,0,0,1,0,0)"><svg width="244.43135999999996" viewBox="1.4 -34 269.567857124424 34.55" height="31.325407237815547" data-palette-color="#ffc500"><path d="M4.42 0L1.4 0 12.08-30.88 15.5-30.88 26.03 0 22.98 0 20.13-8.58 7.4-8.58 4.42 0ZM13.73-27.28L8.15-10.93 19.33-10.93 13.73-27.28ZM35.6 0L32.7 0 32.7-23.75 35.6-23.75 35.6 0ZM35.6-10.88L34.52-10.88Q34.52-15.33 35.3-18.28 36.07-21.23 37.7-22.7 39.32-24.18 41.85-24.18L41.85-24.18Q42.72-24.18 43.46-24.05 44.2-23.93 44.95-23.65L44.95-23.65 44.62-20.83Q43.9-21.1 43.02-21.29 42.15-21.48 41.5-21.48L41.5-21.48Q39.27-21.48 37.98-20.13 36.7-18.78 36.15-16.39 35.6-14 35.6-10.88L35.6-10.88ZM58 0.55L58 0.55Q55.22 0.55 52.8-0.98 50.37-2.5 48.88-5.3 47.4-8.1 47.4-11.93L47.4-11.93Q47.4-15.8 48.88-18.56 50.37-21.33 52.8-22.8 55.22-24.28 58-24.28L58-24.28Q59.85-24.28 61.36-23.74 62.87-23.2 64.03-22.24 65.2-21.28 66.02-20.01 66.84-18.75 67.3-17.3L67.3-17.3 64.27-16.85Q63.55-19.15 61.9-20.45 60.25-21.75 57.95-21.75L57.95-21.75Q56-21.75 54.28-20.63 52.57-19.5 51.5-17.31 50.42-15.13 50.42-11.93L50.42-11.93Q50.42-9.03 51.38-6.79 52.35-4.55 54.05-3.29 55.75-2.02 57.95-2.02L57.95-2.02Q60.97-2.02 62.62-3.53 64.27-5.03 64.27-7.75L64.27-7.75 67.3-7.75Q67.3-5.3 66.12-3.43 64.95-1.55 62.85-0.5 60.75 0.55 58 0.55ZM95.44 0L92.62 0 92.62-13.98Q92.62-17.75 90.81-19.75 88.99-21.75 85.82-21.75L85.82-21.75Q83.49-21.75 81.81-20.48 80.12-19.2 79.23-16.9 78.34-14.6 78.34-11.53L78.34-11.53 77.07-11.53Q77.07-15.43 78.13-18.29 79.19-21.15 81.28-22.71 83.37-24.28 86.47-24.28L86.47-24.28Q89.22-24.28 91.23-23.05 93.24-21.83 94.34-19.51 95.44-17.2 95.44-13.98L95.44-13.98 95.44 0ZM78.34 0L75.44 0 75.44-34 78.34-34 78.34 0ZM106.69-29.98L106.69-29.98Q105.77-29.98 105.19-30.55 104.62-31.13 104.62-32L104.62-32Q104.62-32.85 105.19-33.36 105.77-33.88 106.69-33.88L106.69-33.88Q107.67-33.88 108.22-33.36 108.77-32.85 108.77-32L108.77-32Q108.77-31.13 108.22-30.55 107.67-29.98 106.69-29.98ZM108.14 0L105.24 0 105.24-23.75 108.14-23.75 108.14 0ZM126.19 0.55L126.19 0.55Q124.34 0.55 122.9-0.18 121.46-0.9 120.65-2.33 119.84-3.75 119.84-5.85L119.84-5.85 119.84-30.48 122.66-30.48 122.66-5.9Q122.66-1.85 126.41-1.85L126.41-1.85Q127.51-1.85 128.51-2.1 129.51-2.35 130.76-2.8L130.76-2.8 131.16-0.68Q129.94-0.13 128.71 0.21 127.49 0.55 126.19 0.55ZM130.69-21.63L115.76-21.63 115.76-23.73 130.69-23.73 130.69-21.63ZM145.51 0.55L145.51 0.55Q142.41 0.55 140.05-1.04 137.69-2.63 136.34-5.41 134.99-8.2 134.99-11.78L134.99-11.78Q134.99-15.68 136.32-18.48 137.66-21.28 140.02-22.78 142.39-24.28 145.51-24.28L145.51-24.28Q148.14-24.28 149.97-23.21 151.81-22.15 152.94-20.33 154.06-18.5 154.52-16.2 154.99-13.9 154.89-11.45L154.89-11.45 137.36-11.45 137.36-13.45 153.11-13.45 151.96-12.7Q152.04-14.33 151.77-15.94 151.51-17.55 150.8-18.9 150.09-20.25 148.81-21.08 147.53-21.9 145.53-21.9L145.53-21.9Q142.99-21.9 141.28-20.59 139.59-19.28 138.75-17.19 137.91-15.1 137.91-12.73L137.91-12.73 137.91-11.5Q137.91-8.78 138.75-6.6 139.59-4.42 141.27-3.15 142.96-1.88 145.51-1.88L145.51-1.88Q148.14-1.88 149.8-3.16 151.46-4.45 151.79-6.95L151.79-6.95 154.89-6.95Q154.51-4.58 153.22-2.9 151.94-1.23 149.96-0.34 147.99 0.55 145.51 0.55ZM170.83 0.55L170.83 0.55Q168.06 0.55 165.63-0.98 163.21-2.5 161.72-5.3 160.23-8.1 160.23-11.93L160.23-11.93Q160.23-15.8 161.72-18.56 163.21-21.33 165.63-22.8 168.06-24.28 170.83-24.28L170.83-24.28Q172.68-24.28 174.2-23.74 175.71-23.2 176.87-22.24 178.03-21.28 178.86-20.01 179.68-18.75 180.13-17.3L180.13-17.3 177.11-16.85Q176.38-19.15 174.73-20.45 173.08-21.75 170.78-21.75L170.78-21.75Q168.83-21.75 167.12-20.63 165.41-19.5 164.33-17.31 163.26-15.13 163.26-11.93L163.26-11.93Q163.26-9.03 164.22-6.79 165.18-4.55 166.88-3.29 168.58-2.02 170.78-2.02L170.78-2.02Q173.81-2.02 175.46-3.53 177.11-5.03 177.11-7.75L177.11-7.75 180.13-7.75Q180.13-5.3 178.96-3.43 177.78-1.55 175.68-0.5 173.58 0.55 170.83 0.55ZM195.21 0.55L195.21 0.55Q193.36 0.55 191.92-0.18 190.48-0.9 189.67-2.33 188.86-3.75 188.86-5.85L188.86-5.85 188.86-30.48 191.68-30.48 191.68-5.9Q191.68-1.85 195.43-1.85L195.43-1.85Q196.53-1.85 197.53-2.1 198.53-2.35 199.78-2.8L199.78-2.8 200.18-0.68Q198.96-0.13 197.73 0.21 196.51 0.55 195.21 0.55ZM199.71-21.63L184.78-21.63 184.78-23.73 199.71-23.73 199.71-21.63ZM222.9 0L222.9-23.75 225.8-23.75 225.8 0 222.9 0ZM205.8-8.7L205.8-23.75 208.7-23.75 208.7-8.85Q208.7-5.55 210.32-3.81 211.93-2.08 214.98-2.08L214.98-2.08Q217.48-2.08 219.25-3.43 221.03-4.78 221.97-7.05 222.9-9.33 222.9-12.08L222.9-12.08 224.28-12.08Q224.28-8.28 223.1-5.45 221.93-2.63 219.78-1.09 217.63 0.45 214.68 0.45L214.68 0.45Q211.93 0.45 209.94-0.58 207.95-1.6 206.88-3.64 205.8-5.68 205.8-8.7L205.8-8.7ZM239.25 0L236.35 0 236.35-23.75 239.25-23.75 239.25 0ZM239.25-10.88L238.18-10.88Q238.18-15.33 238.95-18.28 239.73-21.23 241.35-22.7 242.98-24.18 245.5-24.18L245.5-24.18Q246.38-24.18 247.11-24.05 247.85-23.93 248.6-23.65L248.6-23.65 248.28-20.83Q247.55-21.1 246.68-21.29 245.8-21.48 245.15-21.48L245.15-21.48Q242.93-21.48 241.64-20.13 240.35-18.78 239.8-16.39 239.25-14 239.25-10.88L239.25-10.88ZM261.57 0.55L261.57 0.55Q258.47 0.55 256.11-1.04 253.75-2.63 252.4-5.41 251.05-8.2 251.05-11.78L251.05-11.78Q251.05-15.68 252.39-18.48 253.72-21.28 256.09-22.78 258.45-24.28 261.57-24.28L261.57-24.28Q264.2-24.28 266.04-23.21 267.87-22.15 269-20.33 270.12-18.5 270.59-16.2 271.05-13.9 270.95-11.45L270.95-11.45 253.42-11.45 253.42-13.45 269.17-13.45 268.02-12.7Q268.1-14.33 267.84-15.94 267.57-17.55 266.86-18.9 266.15-20.25 264.87-21.08 263.6-21.9 261.6-21.9L261.6-21.9Q259.05-21.9 257.35-20.59 255.65-19.28 254.81-17.19 253.97-15.1 253.97-12.73L253.97-12.73 253.97-11.5Q253.97-8.78 254.81-6.6 255.65-4.42 257.34-3.15 259.02-1.88 261.57-1.88L261.57-1.88Q264.2-1.88 265.86-3.16 267.52-4.45 267.85-6.95L267.85-6.95 270.95-6.95Q270.57-4.58 269.29-2.9 268-1.23 266.02-0.34 264.05 0.55 261.57 0.55Z" opacity="1" transform="matrix(1,0,0,1,0,0)" fill="#ffc500" class="slogan-text-1" data-fill-palette-color="secondary" id="text-1"></path></svg></g></svg></g></svg></g></svg></g></svg></g></svg></g></svg></g><g><path d="M209.166 0c33.372 0 63.654 13.225 85.893 34.721l-7.021 0c-20.981-18.632-48.605-29.948-78.872-29.948-30.267 0-57.891 11.316-78.871 29.948l-7.021 0c22.238-21.495 52.521-34.721 85.892-34.721zM332.766 123.6c0 26.671-8.447 51.368-22.812 71.564l0-8.591c11.432-18.258 18.04-39.844 18.04-62.973 0-23.13-6.608-44.716-18.04-62.973v-8.591c14.365 20.195 22.813 44.893 22.812 71.564zM209.166 247.2c-33.372 0-63.654-13.225-85.892-34.721h7.021c20.981 18.632 48.605 29.948 78.871 29.948 30.267 0 57.891-11.316 78.872-29.948h7.021c-22.238 21.495-52.521 34.721-85.893 34.721z" fill="#ffffff" stroke="transparent" data-fill-palette-color="tertiary"></path></g></svg></g><defs></defs></svg><rect width="395.52" height="247.2" fill="none" stroke="none" visibility="hidden"></rect></g></svg></g></svg>