<svg xmlns="http://www.w3.org/2000/svg" version="1.1" xmlns:xlink="http://www.w3.org/1999/xlink" xmlns:svgjs="http://svgjs.dev/svgjs" width="2000" height="1596" viewBox="0 0 2000 1596"><g transform="matrix(1,0,0,1,0.26873655310294,0.8651029715156255)"><svg viewBox="0 0 213 170" data-background-color="#ffffff" preserveAspectRatio="xMidYMid meet" height="1596" width="2000" xmlns="http://www.w3.org/2000/svg" xmlns:xlink="http://www.w3.org/1999/xlink"><g id="tight-bounds" transform="matrix(1,0,0,1,-0.028620442905463506,-0.09214755962258891)"><svg viewBox="0 0 213.05724088581093 170.18429511924518" height="170.18429511924518" width="213.05724088581093"><g><svg viewBox="0 0 213.05724088581093 170.18429511924518" height="170.18429511924518" width="213.05724088581093"><g><svg viewBox="0 0 213.05724088581093 170.18429511924518" height="170.18429511924518" width="213.05724088581093"><g><path d="M0 170.184v-170.184h213.057v170.184z" fill="#000000" stroke="transparent" stroke-width="0" rx="0%" data-fill-palette-color="tertiary"></path><path d="M3.283 166.901v-163.618h206.491v163.618z" fill="#ffffff" stroke="transparent" stroke-width="0" rx="0%" data-fill-palette-color="quaternary"></path><path d="M9.85 160.334v-150.484h193.357v150.484z" fill="#000000" stroke="transparent" stroke-width="0" data-fill-palette-color="tertiary"></path></g><g transform="matrix(1,0,0,1,19.699740000000013,19.69974)" id="textblocktransform"><svg viewBox="0 0 173.65776088581092 130.7848151192452" height="130.7848151192452" width="173.65776088581092" id="textblock"><g><svg viewBox="0 0 173.65776088581092 100.57561757280003" height="100.57561757280003" width="173.65776088581092"><g transform="matrix(1,0,0,1,0,0)"><svg width="173.65776088581092" viewBox="3.25 -35.01 60.44 35.01" height="100.57561757280003" data-palette-color="#ffffff"><path d="M31.25-35.01L31.25 0 23.75 0 10.25-23.05 10.25 0 3.25 0 3.25-35.01 10.74-35.01 24.24-11.94 24.24-35.01 31.25-35.01ZM35.69-24.51L35.69-24.51Q35.69-26.68 36.52-28.59 37.35-30.49 38.78-31.92 40.21-33.35 42.11-34.18 44.02-35.01 46.19-35.01L46.19-35.01 62.25-35.01 62.25-28 46.19-28Q45.46-28 44.82-27.73 44.19-27.47 43.71-26.99 43.23-26.51 42.97-25.88 42.7-25.24 42.7-24.51L42.7-24.51Q42.7-23.78 42.97-23.13 43.23-22.49 43.71-22.01 44.19-21.53 44.82-21.26 45.46-21 46.19-21L46.19-21 53.2-21Q55.37-21 57.29-20.18 59.2-19.36 60.63-17.93 62.06-16.5 62.88-14.59 63.69-12.67 63.69-10.5L63.69-10.5Q63.69-8.33 62.88-6.42 62.06-4.52 60.63-3.09 59.2-1.66 57.29-0.83 55.37 0 53.2 0L53.2 0 37.64 0 37.64-7.01 53.2-7.01Q53.93-7.01 54.56-7.28 55.2-7.54 55.67-8.02 56.15-8.5 56.42-9.13 56.69-9.77 56.69-10.5L56.69-10.5Q56.69-11.23 56.42-11.87 56.15-12.5 55.67-12.98 55.2-13.45 54.56-13.72 53.93-13.99 53.2-13.99L53.2-13.99 46.19-13.99Q44.02-13.99 42.11-14.82 40.21-15.65 38.78-17.08 37.35-18.51 36.52-20.42 35.69-22.34 35.69-24.51Z" opacity="1" transform="matrix(1,0,0,1,0,0)" fill="#ffffff" class="wordmark-text-0" data-fill-palette-color="quaternary" id="text-0"></path></svg></g></svg></g><g transform="matrix(1,0,0,1,0,107.14219757280003)"><svg viewBox="0 0 173.65776088581092 23.642617546445166" height="23.642617546445166" width="173.65776088581092"><g transform="matrix(1,0,0,1,0,0)"><svg width="173.65776088581092" viewBox="0.12 -37.5 279 37.99" height="23.642617546445166" data-palette-color="#ffffff"><path d="M17.77-28.81L8.3 0 0.12 0 13.33-35.55 18.51-35.55 17.77-28.81ZM25.54 0L16.04-28.81 15.23-35.55 20.43-35.55 33.72 0 25.54 0ZM25.29-13.28L25.29-7.08 6.45-7.08 6.45-13.28 25.29-13.28ZM43.82-20.34L43.82 0 36.45 0 36.45-26.42 43.38-26.42 43.82-20.34ZM51.63-26.59L51.54-19.48Q51-19.56 50.27-19.62 49.53-19.68 48.95-19.68L48.95-19.68Q47.02-19.68 45.77-19.08 44.53-18.48 43.92-17.31 43.31-16.14 43.26-14.4L43.26-14.4 41.82-15.04Q41.82-18.48 42.7-21.17 43.58-23.85 45.29-25.38 46.99-26.9 49.44-26.9L49.44-26.9Q50-26.9 50.62-26.83 51.24-26.76 51.63-26.59L51.63-26.59ZM65.79-5.44L65.79-5.44Q67.04-5.44 67.99-5.91 68.94-6.37 69.47-7.23 69.99-8.08 70.01-9.25L70.01-9.25 76.95-9.25Q76.92-6.4 75.46-4.2 73.99-2 71.5-0.76 69.01 0.49 65.91 0.49L65.91 0.49Q61.81 0.49 59.09-1.29 56.37-3.08 55.01-6.1 53.66-9.13 53.66-12.87L53.66-12.87 53.66-13.53Q53.66-17.29 55.01-20.31 56.37-23.34 59.09-25.12 61.81-26.9 65.89-26.9L65.89-26.9Q69.16-26.9 71.64-25.65 74.12-24.39 75.52-22.06 76.92-19.73 76.95-16.48L76.95-16.48 70.01-16.48Q69.99-17.72 69.51-18.74 69.04-19.75 68.09-20.36 67.13-20.97 65.74-20.97L65.74-20.97Q63.79-20.97 62.78-19.92 61.76-18.87 61.4-17.18 61.03-15.48 61.03-13.53L61.03-13.53 61.03-12.87Q61.03-10.89 61.38-9.19 61.74-7.5 62.78-6.47 63.81-5.44 65.79-5.44ZM88.05-37.5L88.05 0 80.66 0 80.66-37.5 88.05-37.5ZM87-14.09L85.03-13.99Q85.03-17.75 86.26-20.65 87.49-23.56 89.74-25.23 91.98-26.9 94.99-26.9L94.99-26.9Q97.6-26.9 99.57-25.89 101.53-24.88 102.64-22.62 103.75-20.36 103.75-16.58L103.75-16.58 103.75 0 96.35 0 96.35-16.63Q96.35-18.29 95.88-19.23 95.4-20.17 94.49-20.54 93.57-20.92 92.25-20.92L92.25-20.92Q90.79-20.92 89.79-20.42 88.79-19.92 88.16-18.99 87.54-18.07 87.27-16.81 87-15.55 87-14.09L87-14.09ZM116.66-26.42L116.66 0 109.27 0 109.27-26.42 116.66-26.42ZM108.83-33.23L108.83-33.23Q108.83-34.89 109.95-35.95 111.07-37.01 112.95-37.01L112.95-37.01Q114.83-37.01 115.94-35.95 117.06-34.89 117.06-33.23L117.06-33.23Q117.06-31.59 115.94-30.52 114.83-29.44 112.95-29.44L112.95-29.44Q111.07-29.44 109.95-30.52 108.83-31.59 108.83-33.23ZM135.51-26.42L135.51-21.04 119.91-21.04 119.91-26.42 135.51-26.42ZM123.67-32.93L131.04-32.93 131.04-8.25Q131.04-7.18 131.32-6.59 131.6-6.01 132.21-5.79 132.82-5.57 133.73-5.57L133.73-5.57Q134.39-5.57 134.9-5.62 135.41-5.66 135.78-5.74L135.78-5.74 135.75-0.17Q134.85 0.15 133.79 0.32 132.73 0.49 131.41 0.49L131.41 0.49Q129.04 0.49 127.29-0.31 125.55-1.1 124.61-2.84 123.67-4.59 123.67-7.42L123.67-7.42 123.67-32.93ZM151.6 0.49L151.6 0.49Q147.42 0.49 144.46-1.25 141.49-2.98 139.91-5.88 138.34-8.79 138.34-12.3L138.34-12.3 138.34-13.26Q138.34-17.21 139.84-20.3 141.34-23.39 144.13-25.15 146.91-26.9 150.77-26.9L150.77-26.9Q154.6-26.9 157.21-25.29 159.82-23.68 161.17-20.76 162.51-17.85 162.51-13.92L162.51-13.92 162.51-10.79 141.44-10.79 141.44-15.75 155.26-15.75 155.26-16.33Q155.26-17.7 154.77-18.75 154.28-19.8 153.29-20.39 152.3-20.97 150.72-20.97L150.72-20.97Q148.91-20.97 147.81-19.95 146.71-18.92 146.21-17.19 145.71-15.45 145.71-13.26L145.71-13.26 145.71-12.3Q145.71-10.28 146.47-8.74 147.23-7.2 148.64-6.34 150.06-5.47 152.06-5.47L152.06-5.47Q153.94-5.47 155.58-6.16 157.21-6.86 158.36-8.35L158.36-8.35 161.92-4.27Q160.68-2.49 158.08-1 155.48 0.49 151.6 0.49ZM177.4-5.44L177.4-5.44Q178.64-5.44 179.6-5.91 180.55-6.37 181.07-7.23 181.6-8.08 181.62-9.25L181.62-9.25 188.56-9.25Q188.53-6.4 187.07-4.2 185.6-2 183.11-0.76 180.62 0.49 177.52 0.49L177.52 0.49Q173.42 0.49 170.7-1.29 167.98-3.08 166.62-6.1 165.27-9.13 165.27-12.87L165.27-12.87 165.27-13.53Q165.27-17.29 166.62-20.31 167.98-23.34 170.7-25.12 173.42-26.9 177.5-26.9L177.5-26.9Q180.77-26.9 183.25-25.65 185.72-24.39 187.13-22.06 188.53-19.73 188.56-16.48L188.56-16.48 181.62-16.48Q181.6-17.72 181.12-18.74 180.65-19.75 179.69-20.36 178.74-20.97 177.35-20.97L177.35-20.97Q175.4-20.97 174.38-19.92 173.37-18.87 173-17.18 172.64-15.48 172.64-13.53L172.64-13.53 172.64-12.87Q172.64-10.89 172.99-9.19 173.35-7.5 174.38-6.47 175.42-5.44 177.4-5.44ZM205.67-26.42L205.67-21.04 190.07-21.04 190.07-26.42 205.67-26.42ZM193.83-32.93L201.2-32.93 201.2-8.25Q201.2-7.18 201.48-6.59 201.76-6.01 202.37-5.79 202.98-5.57 203.89-5.57L203.89-5.57Q204.55-5.57 205.06-5.62 205.57-5.66 205.94-5.74L205.94-5.74 205.91-0.17Q205.01 0.15 203.95 0.32 202.89 0.49 201.57 0.49L201.57 0.49Q199.2 0.49 197.45-0.31 195.71-1.1 194.77-2.84 193.83-4.59 193.83-7.42L193.83-7.42 193.83-32.93ZM224.93-6.37L224.93-26.42 232.3-26.42 232.3 0 225.39 0 224.93-6.37ZM225.76-11.84L227.88-11.89Q227.88-8.33 226.8-5.53 225.71-2.73 223.52-1.12 221.34 0.49 218.02 0.49L218.02 0.49Q214.11 0.49 211.68-1.79 209.25-4.08 209.25-9.33L209.25-9.33 209.25-26.42 216.63-26.42 216.63-9.28Q216.63-7.93 217.08-7.09 217.53-6.25 218.35-5.87 219.17-5.49 220.22-5.49L220.22-5.49Q222.34-5.49 223.55-6.32 224.76-7.15 225.26-8.59 225.76-10.03 225.76-11.84L225.76-11.84ZM244.85-20.34L244.85 0 237.48 0 237.48-26.42 244.41-26.42 244.85-20.34ZM252.66-26.59L252.56-19.48Q252.03-19.56 251.29-19.62 250.56-19.68 249.98-19.68L249.98-19.68Q248.05-19.68 246.8-19.08 245.56-18.48 244.95-17.31 244.34-16.14 244.29-14.4L244.29-14.4 242.85-15.04Q242.85-18.48 243.73-21.17 244.6-23.85 246.31-25.38 248.02-26.9 250.46-26.9L250.46-26.9Q251.02-26.9 251.65-26.83 252.27-26.76 252.66-26.59L252.66-26.59ZM268.21 0.49L268.21 0.49Q264.04 0.49 261.07-1.25 258.1-2.98 256.53-5.88 254.95-8.79 254.95-12.3L254.95-12.3 254.95-13.26Q254.95-17.21 256.45-20.3 257.96-23.39 260.74-25.15 263.52-26.9 267.38-26.9L267.38-26.9Q271.21-26.9 273.83-25.29 276.44-23.68 277.78-20.76 279.12-17.85 279.12-13.92L279.12-13.92 279.12-10.79 258.05-10.79 258.05-15.75 271.87-15.75 271.87-16.33Q271.87-17.7 271.38-18.75 270.9-19.8 269.91-20.39 268.92-20.97 267.33-20.97L267.33-20.97Q265.52-20.97 264.43-19.95 263.33-18.92 262.83-17.19 262.33-15.45 262.33-13.26L262.33-13.26 262.33-12.3Q262.33-10.28 263.08-8.74 263.84-7.2 265.26-6.34 266.67-5.47 268.67-5.47L268.67-5.47Q270.55-5.47 272.19-6.16 273.83-6.86 274.97-8.35L274.97-8.35 278.54-4.27Q277.29-2.49 274.69-1 272.09 0.49 268.21 0.49Z" opacity="1" transform="matrix(1,0,0,1,0,0)" fill="#ffffff" class="slogan-text-1" data-fill-palette-color="quaternary" id="text-1"></path></svg></g></svg></g></svg></g></svg></g><g></g></svg></g><defs></defs></svg><rect width="213.05724088581093" height="170.18429511924518" fill="none" stroke="none" visibility="hidden"></rect></g></svg></g></svg>